<?xml version="1.0" encoding="UTF-8"?>
<svg width="64px" height="64px" viewBox="0 0 64 64" version="1.1" xmlns="http://www.w3.org/2000/svg" xmlns:xlink="http://www.w3.org/1999/xlink">
    <!-- Generator: Sketch 51.3 (57544) - http://www.bohemiancoding.com/sketch -->
    <title>logo</title>
    <desc>Created with Sketch.</desc>
    <defs></defs>
    <g id="logo" stroke="none" stroke-width="1" fill="none" fill-rule="evenodd">
        <rect fill="#000000" opacity="0" x="0" y="0" width="64" height="64"></rect>
        <g id="icon" transform="translate(0.000000, 11.000000)">
            <polygon id="Combined-Shape" fill="#029545" points="28 39 28 27 31.0000015 27 31.0000015 29.9999985 31 42 0 42 31 0 31 5 6 39"></polygon>
            <path d="M44.9999973,38.9999973 L57.9999994,38.9999973 L33.0000031,5.00000239 L33,3.13954428e-06 L63.9999985,42 L44.9961014,41.9999969 L44.9961014,38.9999973 L44.9999973,38.9999973 L40.7429294,34.7429294 C43.2066174,33.9962046 45,31.7075358 45,29 C45,27.8004108 44.6479619,26.6830444 44.041561,25.7455763 L40.2606735,26.2769454 C40.6475546,26.4563583 40.9897744,26.7157941 41.2660814,27.0340011 C41.7232698,27.5605189 42,28.2479426 42,29 C42,30.6568542 40.6568542,32 39,32 C37.3431458,32 36,30.6568542 36,29 L36,27 L33,27 L33,42 L36,42 L36,34 L44,42 L45,42 L45,39 L44.9999973,38.9999973 Z" id="Combined-Shape" fill="#300971"></path>
            <path d="M39.9200777,24.3051578 C40.2616285,24.0203538 40.5389009,23.6610679 40.7269449,23.2522503 C40.902244,22.871141 41,22.4469866 41,22 C41,20.3431458 39.6568542,19 38,19 C37.8821113,19 37.7658107,19.0067998 37.6514692,19.0200287 C36.9623105,19.0997617 36.3443168,19.4130425 35.8786797,19.8786797 L34.5618671,18.5618671 C34.8398241,18.1069189 35,17.572165 35,17 C35,16.9349147 34.9979274,16.8703135 34.9938445,16.8062588 C34.8939918,15.2396943 33.591769,14 32,14 C30.408231,14 29.1060082,15.2396943 29.0061555,16.8062588 C29.0020726,16.8703135 29,16.9349147 29,17 C29,17.572165 29.1601759,18.1069189 29.4381329,18.5618671 L28.1213203,19.8786797 C27.6556832,19.4130425 27.0376895,19.0997617 26.3485308,19.0200287 C26.2341893,19.0067998 26.1178887,19 26,19 C24.3431458,19 23,20.3431458 23,22 C23,22.4469866 23.097756,22.871141 23.2730551,23.2522503 C23.6910528,24.1609992 24.5499417,24.8250038 25.5756822,24.9702244 L25.4243178,26.0297756 C25.2857002,26.0101506 25.1440355,26 25,26 C24.0952032,26 23.2839598,26.4005499 22.7339186,27.0340011 C22.2767302,27.5605189 22,28.2479426 22,29 C22,30.6568542 23.3431458,32 25,32 C26.6568542,32 28,30.6568542 28,29 L31,29 C31,32.3137085 28.3137085,35 25,35 C21.6862915,35 19,32.3137085 19,29 C19,27.3724344 19.6480396,25.8962266 20.7001678,24.8153274 C20.2532556,23.9757686 20,23.0174598 20,22 C20,18.6862915 22.6862915,16 26,16 C26.0276656,16 26.0552875,16.0001872 26.0828644,16.0005605 C26.5587115,13.1625714 29.026808,11 32,11 C34.973192,11 37.4412885,13.1625714 37.9171356,16.0005605 C37.9447125,16.0001872 37.9723344,16 38,16 C41.3137085,16 44,18.6862915 44,22 C44,22.6157364 43.90725,23.2098098 43.7349589,23.7690112 L39.9200777,24.3051578 Z" id="Combined-Shape" fill="#029545"></path>
        </g>
    </g>
</svg>